# xmcd
# Copyright (C) 1995-1998 Ti Kan
#
# Track frame offsets:
#       150
#       19050
#       38175
#       55431
#       73914
#       97690
#       118618
#       144580
#       164116
#       181597
#
# Disc length: 2820 seconds
#
# Revision: 0
# Processed by: cddbd v1.5.2PL0 Copyright (c) Steve Scherf et al.
# Submitted via: CD-Import v1.0
#
DISCID=880b020a
DTITLE=Various Artist - Buddha Bar 11 (Promo)
DYEAR=09
DGENRE=
TTITLE0=Nyaz - Iman
TTITLE1=Bombay Dub Orchestra - Journey
TTITLE2=Riccardo Eberspacher - Setira
TTITLE3=Ayoe Angelica - Dr Jekyll
TTITLE4=Christos Stylianou (Feat. Maria Latsinou) - Smell Of Roses
TTITLE5=Bahramji (Feat. Mashti) - My Life
TTITLE6=Dj A - Piano Dream
TTITLE7=Rucyl - Love In War (Pete Gust Remix)
TTITLE8=Asli Güngör and Ferhat Göcer - Kalp Kalbe Karsi Hsyn Krdy Remix
TTITLE9=Silky Sunday - Friend (Sandy Rivera Remix)
EXTD=
EXTT0=
EXTT1=
EXTT2=
EXTT3=
EXTT4=
EXTT5=
EXTT6=
EXTT7=
EXTT8=
EXTT9=
PLAYORDER=
